<svg xmlns="http://www.w3.org/2000/svg" viewBox="0 0 340 320" role="img" aria-labelledby="title desc">
<title id="title">Facilident — ícone do dente</title>
<desc id="desc">Símbolo vetorial da Facilident.</desc>
<defs>
  <linearGradient id="gTopLeft" x1="85" y1="96" x2="173" y2="212" gradientUnits="userSpaceOnUse">
    <stop offset="0" stop-color="#0D4BA3"/>
    <stop offset="1" stop-color="#0A3A84"/>
  </linearGradient>
  <linearGradient id="gTopRight" x1="160" y1="100" x2="290" y2="170" gradientUnits="userSpaceOnUse">
    <stop offset="0" stop-color="#0F6ED8"/>
    <stop offset="1" stop-color="#2BB6EC"/>
  </linearGradient>
  <linearGradient id="gBottom" x1="103" y1="200" x2="280" y2="260" gradientUnits="userSpaceOnUse">
    <stop offset="0" stop-color="#1194D5"/>
    <stop offset="1" stop-color="#13C5BD"/>
  </linearGradient>
  <linearGradient id="gSmile" x1="136" y1="190" x2="224" y2="190" gradientUnits="userSpaceOnUse">
    <stop offset="0" stop-color="#1368D5"/>
    <stop offset="1" stop-color="#14C3BE"/>
  </linearGradient>
</defs>
  <path d="M 178.75 108.88 L 177.25 109.75 L 170.50 107.88 L 143.62 93.88 L 140.50 93.88 L 136.25 91.75 L 132.50 91.88 L 131.25 90.75 L 117.62 90.75 L 116.38 91.88 L 109.25 92.88 L 101.25 96.88 L 91.88 105.25 L 84.88 117.25 L 82.75 123.62 L 81.88 134.38 L 80.75 135.62 L 80.75 145.25 L 81.88 146.50 L 81.75 155.25 L 82.88 156.50 L 84.75 171.25 L 97.00 211.88 L 115.25 213.12 L 117.00 211.75 L 113.00 201.38 L 113.12 198.62 L 111.00 194.38 L 111.12 191.62 L 106.00 175.38 L 106.12 170.62 L 104.00 163.38 L 104.12 153.62 L 103.00 152.38 L 105.00 133.50 L 111.00 121.50 L 116.50 116.00 L 129.50 111.00 L 138.38 111.00 L 139.62 112.12 L 144.38 112.00 L 145.62 113.12 L 152.38 114.00 L 156.62 116.12 L 167.25 117.12 L 175.62 114.00 L 179.00 110.62 Z" fill="url(#gTopLeft)"/>
  <path d="M 153.88 125.25 L 154.00 126.88 L 162.62 130.12 L 176.25 130.12 L 190.62 124.00 L 218.50 105.00 L 227.50 102.00 L 233.25 102.12 L 234.50 101.00 L 243.38 102.00 L 249.38 104.00 L 260.88 114.50 L 266.88 129.50 L 267.88 149.38 L 266.75 150.62 L 266.88 158.38 L 265.75 159.62 L 265.88 163.38 L 264.75 164.62 L 264.88 168.38 L 263.75 169.62 L 263.88 173.38 L 261.88 179.62 L 263.62 181.12 L 267.50 180.00 L 277.25 180.12 L 278.50 179.00 L 284.62 179.00 L 286.00 176.62 L 288.00 161.50 L 289.12 160.25 L 289.00 153.50 L 290.12 152.25 L 290.12 124.62 L 289.00 123.38 L 289.12 119.62 L 287.00 115.38 L 287.12 112.62 L 282.00 101.25 L 278.00 95.25 L 268.62 85.88 L 257.62 79.88 L 254.50 79.88 L 250.25 77.75 L 232.62 77.75 L 219.25 81.88 L 203.25 92.88 L 185.38 111.88 L 176.38 118.88 L 163.38 124.88 Z" fill="url(#gTopRight)"/>
  <path d="M 224.12 175.62 L 220.62 170.88 L 216.62 168.88 L 210.25 169.88 L 206.88 173.25 L 205.88 176.12 L 208.75 181.62 L 202.88 191.38 L 194.38 198.88 L 182.38 203.88 L 169.50 203.88 L 160.50 200.88 L 149.00 191.38 L 150.12 189.25 L 149.00 186.25 L 144.25 182.75 L 140.25 182.88 L 135.88 186.25 L 134.75 188.62 L 134.75 194.25 L 137.25 197.00 L 140.38 197.00 L 150.25 208.00 L 161.25 214.00 L 168.62 216.12 L 183.25 216.12 L 190.62 214.00 L 201.62 208.00 L 211.00 198.62 L 217.00 187.62 L 217.00 185.50 L 218.50 184.00 L 221.62 184.00 L 224.00 181.62 Z" fill="url(#gSmile)"/>
  <path d="M 281.12 193.62 L 279.75 191.88 L 278.38 192.88 L 261.62 192.75 L 260.38 193.88 L 255.25 193.88 L 249.88 198.25 L 240.88 228.38 L 238.88 231.25 L 236.88 239.38 L 229.88 254.25 L 229.88 256.38 L 222.88 269.38 L 217.38 273.88 L 210.50 272.88 L 205.00 266.38 L 197.00 251.25 L 189.62 243.88 L 185.25 241.75 L 177.62 241.75 L 170.25 245.88 L 164.88 252.25 L 156.88 266.38 L 151.38 271.88 L 146.50 272.88 L 138.00 264.38 L 124.00 231.38 L 123.00 226.25 L 120.25 223.75 L 113.50 223.88 L 112.25 222.75 L 102.62 222.75 L 101.75 225.25 L 110.88 249.62 L 112.88 252.50 L 112.88 254.62 L 114.88 257.50 L 114.88 259.62 L 123.88 277.62 L 127.88 283.62 L 135.25 291.00 L 141.62 294.12 L 152.25 294.12 L 156.62 292.00 L 165.00 282.62 L 174.00 265.50 L 177.50 262.00 L 181.38 262.00 L 184.88 266.50 L 192.88 284.62 L 196.88 290.62 L 204.25 298.00 L 210.62 301.12 L 223.25 301.12 L 228.62 299.00 L 235.62 294.00 L 241.00 288.62 L 249.00 276.62 L 257.00 260.62 L 257.00 258.50 L 260.00 253.62 L 260.00 251.50 L 269.00 231.62 Z" fill="url(#gBottom)"/>
  <path d="M 334.62 34.75 L 332.75 36.62 L 332.75 55.25 L 335.25 58.00 L 339.88 58.00 L 339.88 34.88 Z" fill="#1db8c4"/>
  <path d="M 279.00 50.00 L 278.75 68.25 L 280.25 70.00 L 297.25 70.12 L 300.00 67.62 L 300.12 51.62 L 297.62 48.88 L 281.62 48.75 Z" fill="#1ba6cf"/>
  <path d="M 312.25 63.88 L 310.75 65.62 L 310.88 77.62 L 312.62 79.12 L 323.62 79.00 L 326.12 76.25 L 326.12 66.62 L 324.88 64.00 Z" fill="#268bd7"/>
  <path d="M 293.25 85.88 L 290.75 88.62 L 290.88 97.62 L 293.62 100.12 L 299.25 100.12 L 300.50 99.00 L 303.88 98.88 L 304.00 87.25 L 302.25 85.75 Z" fill="#3fabdc"/>
  <path d="M 327.25 93.88 L 325.75 95.62 L 326.00 105.88 L 328.62 107.12 L 337.62 107.00 L 339.12 105.25 L 339.00 95.25 L 337.25 93.75 Z" fill="#2cafcb"/>
  <path d="M 304.00 119.00 L 302.75 121.62 L 302.75 131.25 L 304.00 133.88 L 306.62 135.12 L 308.50 134.00 L 316.25 135.12 L 318.88 133.88 L 318.88 119.00 L 308.50 118.88 L 307.25 117.75 Z" fill="#238bd5"/>
</svg>